<?xml version="1.0" encoding="utf-8"?>
<!-- Generator: Adobe Illustrator 17.0.0, SVG Export Plug-In . SVG Version: 6.00 Build 0)  -->
<!DOCTYPE svg PUBLIC "-//W3C//DTD SVG 1.1//EN" "http://www.w3.org/Graphics/SVG/1.1/DTD/svg11.dtd">
<svg version="1.1" xmlns="http://www.w3.org/2000/svg" xmlns:xlink="http://www.w3.org/1999/xlink" x="0px" y="0px" width="480px"
	 height="480px" viewBox="0 0 480 480" enable-background="new 0 0 480 480" xml:space="preserve">
<g id="Layer_1">
	<path fill="none" stroke="#000000" stroke-width="0" stroke-linecap="round" stroke-linejoin="round" d="M52.5,245.9
		c0,7.7,2.3,13.8,6.7,17.6c5.5,4.7,23.2,12.2,45.6,19.1c0,0.2,0,0.3,0,0.5c0.1,1.7,0.8,6.6,1.9,14.5c0.4,3,0.9,5.8,1.2,7.9l0.4,2.5
		c0,0.2,0.1,0.4,0.1,0.6c0,0.2,0,0.4,0.1,0.6c4.7,19.7,10.7,30.3,22.5,46.4c22.3,30.6,59.7,55,95.3,62.1c3,0.6,7.6,0.8,12.4,0.8
		c6.1,0,12.3-0.3,15.3-0.6c32.4-3.1,69.6-27.4,94.8-62.1c11.5-15.7,17.7-26.7,22.5-46.7c0.1-0.3,0.1-0.5,0.1-0.8
		c0.2-0.8,0.3-1.7,0.5-2.7c0.3-2,0.7-4.7,1.2-7.5c1.2-7.6,1.8-12.3,1.9-14c0-0.5,0-0.9-0.2-1.3c22.9-7,41.2-14.7,46.7-19.5
		c4.4-3.8,6.7-9.9,6.7-17.6c-0.1-16-9.7-26.7-23.9-26.7c-2.9,0-5.7-0.9-7.3-7.1c-7.1-28.4-15.5-48.2-27.8-66.2
		c-12-17.2-28.4-32.9-45.2-42.9c-6.5-3.8-15-7.8-22.6-11.2c-15-6.3-15.4-6.9-17.6-10l-0.2-0.2c0-0.1-0.1-0.1-0.1-0.2
		c-0.8-1-1.6-2.1-2.4-3.2c-3.7-5.3-8-11.2-21.8-14.6c-1.1-0.3-4.3-0.5-17.1-0.7c-0.8,0-1.4,0-1.7,0c-0.1,0-0.1,0-0.2,0
		c-0.1,0-15.8,0.7-18.1,1.3c-14.4,3.6-18.9,9.5-22.9,14.7c-0.7,0.9-1.3,1.7-2,2.6c0,0.1-0.1,0.1-0.1,0.2l-0.2,0.2
		c-2.2,3-2.7,3.7-17.7,10c-7.5,3.3-16,7.3-22.5,11.1c-16.8,10-33.3,25.7-45.2,42.9c-12.4,18-20.7,37.8-27.8,66.2
		c-1.6,6.3-4.4,7.1-7.3,7.1C62.2,219.2,52.6,229.9,52.5,245.9z"/>
	<path id="copy" fill="none" stroke="#000000" stroke-width="7" stroke-linecap="round" stroke-linejoin="round" d="M76.4,222.7
		c5.6,0,9-3.1,10.7-9.8c7.1-28.1,15.2-47.5,27.3-65c11.7-16.9,27.8-32.1,44.1-41.9c6.3-3.7,14.7-7.6,22.1-10.9
		c16.2-6.8,16.4-7.5,19.3-11.4c4.9-5.9,7.5-12.3,23-16.1c1.7-0.4,15.8-1.1,17.4-1.2c1.6,0,16.3,0.2,18,0.7
		c15.5,3.8,17.5,10.7,22.4,16.6c2.8,3.9,3.1,4.5,19.3,11.4c7.5,3.3,15.8,7.2,22.1,10.9c16.4,9.8,32.4,25,44.1,41.9
		c12.1,17.6,20.3,37,27.3,65c1.7,6.7,5.1,9.8,10.7,9.8c12.2,0,20.4,9.3,20.4,23.2c0,6.7-1.9,11.8-5.5,14.9
		c-9.1,7.9-51.7,22.2-87.2,29.4c-30.9,6.3-45.3,7.6-85.8,7.6c-2.1,0-4,0-5.9,0c-1.9,0-3.8,0-5.9,0c-40.5,0-54.9-1.3-85.8-7.6
		c-35.5-7.2-78.1-21.5-87.2-29.4c-3.6-3.1-5.5-8.3-5.5-14.9C56.1,232,64.3,222.7,76.4,222.7z M108.3,282.9
		c0.3,3.9,3.6,25.6,3.6,25.6c0,0,0,0,0,0c4.5,19,10.2,29.1,21.9,45.1c22.9,31.6,60.2,54.2,93.2,60.8c5.9,1.2,20.7,0.7,26.7,0.1
		c33.7-3.2,69.3-29.1,92.3-60.6c11.7-16.1,17.4-26.4,21.9-45.4c0,0,0,0,0,0c0,0,3.3-20.6,3.6-24.5"/>
	<path display="none" fill="#FFEB3B" d="M59.5,245.9c0,3.9,0.7,9.2,4.3,12.3c7.7,6.7,47.6,20.9,85.6,28.6
		c30.8,6.2,45.1,7.5,85.1,7.5c2.1,0,4,0,5.9,0c1.9,0,3.8,0,5.9,0c40,0,54.3-1.3,85.1-7.5c38-7.7,77.9-21.9,85.6-28.6
		c3.5-3,4.3-8.4,4.3-12.3c-0.1-12-6.7-19.7-16.9-19.7c-7.3,0-12-4.2-14.1-12.4c-6.9-27.5-14.9-46.6-26.8-63.9
		c-11.4-16.4-27.1-31.3-43.1-40.9c-6.2-3.7-14.5-7.5-21.8-10.7c-15.7-6.6-17.2-7.7-20.5-12.3l-0.1-0.1c-1-1.2-1.8-2.3-2.6-3.5
		c-3.3-4.7-6.5-9.1-17.8-11.9c-0.7-0.1-4-0.3-15.5-0.5c-0.8,0-1.3,0-1.6,0c-2.4,0.1-14.9,0.7-16.6,1.1c-12,3-15.2,7.2-18.9,12.2
		c-0.7,0.9-1.4,1.8-2.1,2.7l-0.1,0.1c-3.3,4.6-4.8,5.7-20.6,12.3c-7.2,3.2-15.5,7.1-21.7,10.7c-15.9,9.5-31.6,24.5-43.1,40.9
		c-11.9,17.2-19.9,36.4-26.8,63.9c-2.1,8.3-6.8,12.4-14.1,12.4C66.2,226.2,59.6,233.9,59.5,245.9z"/>
	<path id="top_helmet_shadow" display="none" opacity="0.5" fill="#FBC02D" d="M246.2,294.1c40,0,54.3-1.2,85.1-7.4
		c38-7.7,77.9-21.9,85.6-28.6c3.5-3,4.3-8.4,4.3-12.3c-0.1-12-6.7-19.7-16.9-19.7c-7.3,0-12-4.2-14.1-12.4
		c-6.9-27.5-14.9-46.6-26.8-63.9c-11.4-16.4-27.1-31.3-43.1-40.9c-6.2-3.7-14.5-7.5-21.8-10.7c-15.7-6.6-17.2-7.7-20.5-12.3
		l-0.1-0.1c-1-1.2-1.8-2.3-2.6-3.5c-3.3-4.7-6.5-9.1-17.8-11.9c-0.7-0.1-4-0.3-15.5-0.5c-0.8,0-1.3,0-1.6,0c-0.1,0-0.2,0-0.4,0V294
		c0.1,0,0.2,0,0.4,0C242.2,294,244.2,294.2,246.2,294.1z"/>
	<path id="copy_bottom_face" display="none" fill="#FFF9C4" d="M113,284.8c0.8,6.3,3.1,21.8,3.3,23.1c0,0,0,0,0,0
		c4.4,18.5,9.9,28.1,21.3,43.7c21.3,29.3,57,52.6,91.1,59.4c5.3,1.1,19.6,0.6,25.6,0.1c30.5-2.9,65.7-26.1,89.7-59.2
		c11.1-15.2,16.8-25.2,21.3-43.9c0,0,0,0,0-0.1c0.2-1.3,2.8-17.3,3.4-22.8c-11.1,3.2-23.1,6.2-35.1,8.6c-31.3,6.4-45.9,7.6-86.5,7.6
		c-2,0-4,0-5.9,0c-1.9,0-3.9,0-5.9,0c-40.6,0-55.1-1.3-86.5-7.6C136.6,291.2,124.4,288.1,113,284.8z"/>
	<path id="face_shadow" display="none" opacity="0.2" fill="#B6B6B6" d="M343.1,351.8c11.1-15.2,16.8-25.2,21.3-43.9c0,0,0,0,0-0.1
		c0.2-1.3,2.8-17.3,3.4-22.8c-11.1,3.2-23.1,6.2-35.1,8.6c-31.3,6.4-45.9,7.5-86.5,7.5c-2,0-4-0.1-5.9-0.1c-0.1,0-0.2,0-0.4,0v110.6
		c5.1,0,10.3-0.3,13.3-0.6C283.8,408.2,319,384.9,343.1,351.8z"/>
	<path id="mouth" stroke="#000000" stroke-width="9" stroke-linecap="round" stroke-linejoin="round" stroke-miterlimit="10" d="
		M220,371.5h39H220z"/>
	<circle fill="#03A9F4" cx="239.5" cy="188.4" r="13.2"/>
	<path fill="none" stroke="#03A9F4" stroke-width="6" stroke-miterlimit="10" d="M239.5,161.5c17.8,0,34.3,2.5,46.7,6.8
		c15,5.2,24.2,13,24.2,20.1c0,7.4-9.8,15.7-25.9,21c-12.2,4-28.2,6.1-45,6.1c-17.3,0-33.7-2-46-6.2c-15.6-5.3-24.9-13.7-24.9-21
		c0-7,8.8-14.8,23.6-19.9C204.7,164.1,221.6,161.5,239.5,161.5z"/>
	<path fill="none" stroke="#03A9F4" stroke-width="6" stroke-miterlimit="10" d="M216.1,175c8.9-15.4,19.3-28.4,29.3-37
		c12-10.4,23.3-14.5,29.5-10.9c6.4,3.7,8.7,16.3,5.3,32.9c-2.6,12.6-8.8,27.5-17.2,42.1c-8.6,15-18.5,28.2-28.3,36.7
		c-12.4,10.8-24.4,14.7-30.6,11.1c-6.1-3.5-8.4-15-5.5-30.4C200.9,206.5,207.1,190.5,216.1,175z"/>
	<path fill="none" stroke="#03A9F4" stroke-width="6" stroke-miterlimit="10" d="M216.1,202c-8.9-15.4-15-30.9-17.5-43.8
		c-3-15.6-0.9-27.5,5.2-31c6.4-3.7,18.5,0.6,31.2,11.9c9.6,8.5,19.4,21.3,27.9,35.9c8.7,15,15.2,30.1,17.7,42.9
		c3.2,16.1,0.6,28.5-5.7,32.1c-6.1,3.5-17.2-0.2-29.1-10.4C235.8,230.9,225.1,217.6,216.1,202z"/>
</g>
<g id="Layer_2" display="none">
	<rect display="inline" stroke="#000000" stroke-width="6" stroke-miterlimit="10" width="480" height="480"/>
	
		<path id="copy_1_" display="inline" fill="none" stroke="#F4F4F4" stroke-width="7" stroke-linecap="round" stroke-linejoin="round" d="
		M76.4,221.7c5.6,0,9-3.1,10.7-9.8c7.1-28.1,15.2-47.5,27.3-65c11.7-16.9,27.8-32.1,44.1-41.9c6.3-3.7,14.7-7.6,22.1-10.9
		c16.2-6.8,16.4-7.5,19.3-11.4c4.9-5.9,7.5-12.3,23-16.1c1.7-0.4,15.8-1.1,17.4-1.2c1.6,0,16.3,0.2,18,0.7
		c15.5,3.8,17.5,10.7,22.4,16.6c2.8,3.9,3.1,4.5,19.3,11.4c7.5,3.3,15.8,7.2,22.1,10.9c16.4,9.8,32.4,25,44.1,41.9
		c12.1,17.6,20.3,37,27.3,65c1.7,6.7,5.1,9.8,10.7,9.8c12.2,0,20.4,9.3,20.4,23.2c0,6.7-1.9,11.8-5.5,14.9
		c-9.1,7.9-51.7,22.2-87.2,29.4c-30.9,6.3-45.3,7.6-85.8,7.6c-2.1,0-4,0-5.9,0c-1.9,0-3.8,0-5.9,0c-40.5,0-54.9-1.3-85.8-7.6
		c-35.5-7.2-78.1-21.5-87.2-29.4c-3.6-3.1-5.5-8.3-5.5-14.9C56.1,231,64.3,221.7,76.4,221.7z M108.3,281.9
		c0.3,3.9,3.6,25.6,3.6,25.6c0,0,0,0,0,0c4.5,19,10.2,29.1,21.9,45.1c22.9,31.6,60.2,54.2,93.2,60.8c5.9,1.2,20.7,0.7,26.7,0.1
		c33.7-3.2,69.3-29.1,92.3-60.6c11.7-16.1,17.4-26.4,21.9-45.4c0,0,0,0,0,0c0,0,3.3-20.6,3.6-24.5"/>
	<circle display="inline" fill="#03A9F4" cx="240.3" cy="194.2" r="13.2"/>
	<path display="inline" fill="none" stroke="#3FA9F5" stroke-width="6" stroke-miterlimit="10" d="M240.3,167.3
		c17.8,0,34.3,2.5,46.7,6.8c15,5.2,24.2,13,24.2,20.1c0,7.4-9.8,15.7-25.9,21c-12.2,4-28.2,6.1-45,6.1c-17.3,0-33.7-2-46-6.2
		c-15.6-5.3-24.9-13.7-24.9-21c0-7,8.8-14.8,23.6-19.9C205.5,169.9,222.4,167.3,240.3,167.3z"/>
	<path display="inline" fill="none" stroke="#3FA9F5" stroke-width="6" stroke-miterlimit="10" d="M216.9,180.9
		c8.9-15.4,19.3-28.4,29.3-37c12-10.4,23.3-14.5,29.5-10.9c6.4,3.7,8.7,16.3,5.3,32.9c-2.6,12.6-8.8,27.5-17.2,42.1
		c-8.6,15-18.5,28.2-28.3,36.7c-12.4,10.8-24.4,14.7-30.6,11.1c-6.1-3.5-8.4-15-5.5-30.4C201.8,212.3,208,196.4,216.9,180.9z"/>
	
		<path id="mouth_1_" display="inline" stroke="#FFFFFF" stroke-width="9" stroke-linecap="round" stroke-linejoin="round" stroke-miterlimit="10" d="
		M221,368.5h39H221z"/>
	<path display="inline" fill="none" stroke="#29ABE2" stroke-width="6" stroke-miterlimit="10" d="M217,207.9
		c-8.9-15.4-15-30.9-17.5-43.8c-3-15.6-0.9-27.5,5.2-31c6.4-3.7,18.5,0.6,31.2,11.9c9.6,8.5,19.4,21.3,27.9,35.9
		c8.7,15,15.2,30.1,17.7,42.9c3.2,16.1,0.6,28.5-5.7,32.1c-6.1,3.5-17.2-0.2-29.1-10.4C236.7,236.7,225.9,223.4,217,207.9z"/>
</g>
</svg>
